<svg width="30" height="30" viewBox="0 0 30 30" fill="none" xmlns="http://www.w3.org/2000/svg">
<rect x="0.5" y="0.5" width="29" height="29" rx="4.5" stroke="#DCB44E"/>
<path d="M20.4283 7.92739C20.4399 7.36165 20.419 7.00418 20.419 7.00418L15.0274 7H15H14.9726L9.58045 7.00418C9.58045 7.00418 9.56008 7.36165 9.57172 7.92739H6V8.53133C6 8.66918 6.0227 11.921 7.97995 13.7024C8.7965 14.4454 9.81499 14.819 11.0156 14.8196C11.1972 14.8196 11.3841 14.807 11.5732 14.7903C12.2553 15.7482 13.0433 16.4189 13.9297 16.7531V19.4058H11.3276V21.0672H10.468V21.9988H14.9726H15.0274H19.532V21.0678H18.6718V19.4064H16.0697V16.7537C16.9555 16.4195 17.7441 15.7487 18.4262 14.7909C18.6165 14.8076 18.8034 14.8196 18.9849 14.8196C20.185 14.8184 21.2035 14.4454 22.02 13.7018C23.9773 11.9204 24 8.66859 24 8.53073V7.92739H20.4283ZM8.76565 12.8019C7.64763 11.7873 7.31706 10.0507 7.21928 9.13527H9.63923C9.74166 10.2757 9.9826 11.6966 10.5384 12.9457C10.6403 13.1748 10.7473 13.3921 10.8568 13.6045C10.0228 13.5717 9.32087 13.3049 8.76565 12.8019ZM21.2344 12.8019C20.6797 13.3055 19.9772 13.5717 19.1438 13.6045C19.2532 13.3927 19.3603 13.1748 19.4622 12.9457C20.018 11.6966 20.2589 10.2757 20.3608 9.13527H22.7807C22.6829 10.0501 22.3529 11.7867 21.2344 12.8019Z" fill="#DCB44E"/>
</svg>
